<svg id="visual" viewBox="0 0 1920 1080" width="1920" height="1080" xmlns="http://www.w3.org/2000/svg" xmlns:xlink="http://www.w3.org/1999/xlink" version="1.1"><rect x="0" y="0" width="1920" height="1080" fill="#A97BD4"></rect><path d="M0 362L45.7 349.7C91.3 337.3 182.7 312.7 274.2 300.7C365.7 288.7 457.3 289.3 548.8 294C640.3 298.7 731.7 307.3 823 319.8C914.3 332.3 1005.7 348.7 1097 355.3C1188.3 362 1279.7 359 1371.2 363.3C1462.7 367.7 1554.3 379.3 1645.8 364.7C1737.3 350 1828.7 309 1874.3 288.5L1920 268L1920 0L1874.3 0C1828.7 0 1737.3 0 1645.8 0C1554.3 0 1462.7 0 1371.2 0C1279.7 0 1188.3 0 1097 0C1005.7 0 914.3 0 823 0C731.7 0 640.3 0 548.8 0C457.3 0 365.7 0 274.2 0C182.7 0 91.3 0 45.7 0L0 0Z" fill="#a97bd4"></path><path d="M0 232L45.7 241.3C91.3 250.7 182.7 269.3 274.2 282.3C365.7 295.3 457.3 302.7 548.8 310C640.3 317.3 731.7 324.7 823 328.7C914.3 332.7 1005.7 333.3 1097 321.2C1188.3 309 1279.7 284 1371.2 272.7C1462.7 261.3 1554.3 263.7 1645.8 275.3C1737.3 287 1828.7 308 1874.3 318.5L1920 329L1920 0L1874.3 0C1828.7 0 1737.3 0 1645.8 0C1554.3 0 1462.7 0 1371.2 0C1279.7 0 1188.3 0 1097 0C1005.7 0 914.3 0 823 0C731.7 0 640.3 0 548.8 0C457.3 0 365.7 0 274.2 0C182.7 0 91.3 0 45.7 0L0 0Z" fill="#9869c5"></path><path d="M0 188L45.7 189.2C91.3 190.3 182.7 192.7 274.2 199C365.7 205.3 457.3 215.7 548.8 223C640.3 230.3 731.7 234.7 823 236.8C914.3 239 1005.7 239 1097 234C1188.3 229 1279.7 219 1371.2 222.8C1462.7 226.7 1554.3 244.3 1645.8 242C1737.3 239.7 1828.7 217.3 1874.3 206.2L1920 195L1920 0L1874.3 0C1828.7 0 1737.3 0 1645.8 0C1554.3 0 1462.7 0 1371.2 0C1279.7 0 1188.3 0 1097 0C1005.7 0 914.3 0 823 0C731.7 0 640.3 0 548.8 0C457.3 0 365.7 0 274.2 0C182.7 0 91.3 0 45.7 0L0 0Z" fill="#8757b6"></path><path d="M0 131L45.7 129C91.3 127 182.7 123 274.2 125.5C365.7 128 457.3 137 548.8 138.3C640.3 139.7 731.7 133.3 823 140.3C914.3 147.3 1005.7 167.7 1097 179.3C1188.3 191 1279.7 194 1371.2 188.7C1462.7 183.3 1554.3 169.7 1645.8 164.2C1737.3 158.7 1828.7 161.3 1874.3 162.7L1920 164L1920 0L1874.3 0C1828.7 0 1737.3 0 1645.8 0C1554.3 0 1462.7 0 1371.2 0C1279.7 0 1188.3 0 1097 0C1005.7 0 914.3 0 823 0C731.7 0 640.3 0 548.8 0C457.3 0 365.7 0 274.2 0C182.7 0 91.3 0 45.7 0L0 0Z" fill="#7745a7"></path><path d="M0 69L45.7 76.5C91.3 84 182.7 99 274.2 106.3C365.7 113.7 457.3 113.3 548.8 112.3C640.3 111.3 731.7 109.7 823 104C914.3 98.3 1005.7 88.7 1097 88.2C1188.3 87.7 1279.7 96.3 1371.2 94.3C1462.7 92.3 1554.3 79.7 1645.8 82.2C1737.3 84.7 1828.7 102.3 1874.3 111.2L1920 120L1920 0L1874.3 0C1828.7 0 1737.3 0 1645.8 0C1554.3 0 1462.7 0 1371.2 0C1279.7 0 1188.3 0 1097 0C1005.7 0 914.3 0 823 0C731.7 0 640.3 0 548.8 0C457.3 0 365.7 0 274.2 0C182.7 0 91.3 0 45.7 0L0 0Z" fill="#663399"></path></svg>